<?xml version="1.0" encoding="utf-8"?>
<!-- Generator: Adobe Illustrator 26.0.1, SVG Export Plug-In . SVG Version: 6.00 Build 0)  -->
<svg version="1.1" id="Layer_1" xmlns="http://www.w3.org/2000/svg" xmlns:xlink="http://www.w3.org/1999/xlink" x="0px" y="0px"
	 viewBox="0 0 730 762" style="enable-background:new 0 0 730 762;" xml:space="preserve">
<style type="text/css">
	.st0{opacity:0.5;}
	.st1{fill-rule:evenodd;clip-rule:evenodd;fill:url(#SVGID_1_);fill-opacity:0.5;stroke:#0B4391;}
	.st2{fill-rule:evenodd;clip-rule:evenodd;fill:#248191;fill-opacity:0.5;stroke:#0B4391;}
	.st3{fill-rule:evenodd;clip-rule:evenodd;fill:#69A4FE;stroke:#0B4391;}
	.st4{fill-rule:evenodd;clip-rule:evenodd;fill:#1A7D1E;fill-opacity:0.5;stroke:#0B4391;}
</style>
<g id="Layer_1_00000109733084380233277620000017362050845900552619_" class="st0">
	
		<linearGradient id="SVGID_1_" gradientUnits="userSpaceOnUse" x1="126.9846" y1="-85.3382" x2="612.1591" y2="498.7118" gradientTransform="matrix(1 0 0 1 0 166)">
		<stop  offset="0" style="stop-color:#78B1E6"/>
		<stop  offset="1" style="stop-color:#2680D3"/>
	</linearGradient>
	<path class="st1" d="M365,104.6c51.8-1.3,111.2-16.3,152.1,15.7c41.2,32.2,20.5,104,53.2,144.8c41.9,52.2,150.2,52,157.9,118.5
		c7.3,62.9-92.7,83.3-128.6,135.5c-32,46.5-18.9,125.4-68.9,151.5c-50.6,26.4-109.4-20-165.7-29.1c-46.5-7.5-96.2,3-137.6-19.5
		c-41.7-22.8-63.7-67.5-91.9-105.8C104,473.4,65.8,435,51.9,383.7c-16.1-59.4-34.7-129.8-1.3-181.5c33.6-51.9,107.7-55.8,166.8-74.1
		C265.8,113.1,314.4,106,365,104.6z"/>
</g>
<g id="Layer_2_00000129925499022575814490000010979102848643703733_" class="st0">
	<path class="st2" d="M370.7,7.5c61.4,20.5,62.7,113,114.3,152.2c45,34.2,122.6,9.2,157.2,53.9c34.4,44.4,15,108.6,11.8,164.7
		c-3.5,61.3,2.3,126.3-31.3,177.6c-35.4,54.1-91.5,104.9-156,108.5c-64,3.6-106.1-66.2-165.4-90.5c-50.9-20.8-127.2,5.7-156.2-41
		c-30.4-48.9,25.2-109.5,27.1-167c1.5-43.6-20.4-83.6-17.2-127.1c4.4-61.4-3.1-131.7,38.9-176.8C236.7,16.1,310.9-12.5,370.7,7.5z"
		/>
</g>
<g id="Layer_3" class="st0">
	<path class="st3" d="M352,157c64.7-0.6,118,49.6,166,92.9c42.4,38.3,79,84.8,92.3,140.3c12.1,50.8-11.4,100.8-22.7,151.8
		c-10.4,46.8-11.9,96.7-40.8,134.9c-29.9,39.5-73.9,67.3-121.8,79.7c-47.1,12.3-94.6-3.2-142.8-10.9c-55.6-8.8-116.6-3.1-161.4-37.4
		c-48.1-36.8-89-93.7-88.9-154.3c0.1-59.8,61.8-98.3,89.3-151.4c25.7-49.5,28.5-109.1,66.7-149.8C232.3,205.9,287.4,157.6,352,157z"
		/>
</g>
<g id="Layer_4" class="st0">
	<path class="st4" d="M352.9,23.9c50.2,21.8,63.9,85.5,103.9,122.8c30.3,28.2,71.9,38.6,100.9,68.2c40.5,41.4,90.6,80.4,100.2,137.4
		c10.5,62.4,1.7,139.4-46.9,179.8c-49.3,41-125.1,2.6-187.9,15.7c-55.6,11.6-100.3,56.4-157.1,56.3c-67.1-0.1-139.4-11.4-188.7-57
		C26.7,500.2-0.9,428,1.1,359C3,293.6,58.7,245.9,87.8,187.3c27.9-56.1,27.6-132.5,81-165.4C222.1-11,295.4-1,352.9,23.9z"/>
</g>
</svg>
