<?xml version="1.0" encoding="utf-8"?>
<!-- Generator: Adobe Illustrator 26.0.1, SVG Export Plug-In . SVG Version: 6.00 Build 0)  -->
<svg version="1.1" id="Layer_1" xmlns="http://www.w3.org/2000/svg" xmlns:xlink="http://www.w3.org/1999/xlink" x="0px" y="0px"
	 viewBox="0 0 332.24 352.35" style="enable-background:new 0 0 332.24 352.35;" xml:space="preserve">
<style type="text/css">
	.st0{fill:#393B12;}
</style>
<g>
	<path class="st0" d="M70.86,70.81c1.69-4.26,5.49-6.73,9.45-8.47c11.13-5.32,22.87-9.25,34.89-12.03
		c36.72-8.3,77.71-6.91,110.95,12.26c23.51,13.9,46.26,41.21,34.98,69.94c-4.2,10.69-12.56,19.25-22.21,24.81
		c-27.12,15.48-59.98,8.02-88.12-0.08c-7.83-2.4-15.58-5.08-23.16-8.34c-8.82-3.73-18.15-8.91-21.96-18.49
		c-2.42-6.23-2-13.68,1.44-19.46c5.85-10.03,17.69-14.88,28.79-15.28c19.73-0.49,39.07,5.08,56.35,14.25
		c17.16,9.04,31.14,25.03,26.71,45.77c-6.18,30.65-39.51,36.7-65.72,38.48c-8.02,0.66-15.95,0.97-23.41,1.75
		c-3.68,0.42-8.16,0.88-10.58,3.75c-2.54,3.03-2.1,8.05-1.48,11.9c0.57,3.96,1.33,7.96,1.91,12.09c3.13,18.5-3.32,32.47-15.19,46.25
		C94.3,282.16,82.71,293,72.07,304.81c-0.18,0.21-0.49,0.23-0.7,0.05c-0.2-0.17-0.22-0.48-0.06-0.68
		c9.92-12.28,20.59-24.11,29.62-37.02c9.35-12.86,14.29-26,9.83-41.78c-1.31-5.82-4.2-11.5-5.66-17.42
		c-3.48-15.17,6.73-25.05,21.05-27.15c20.67-4.24,64.07-3.05,73.87-23.66c10.68-23.5-13.47-40.81-34.18-45.79
		c-12.61-3.29-37.96-5.66-45.39,7.52c-3.51,8.58,7.01,13.8,13.31,17.33c6.69,3.61,13.66,6.86,20.87,9.43
		c20.29,7.27,44.94,10.22,64.38-0.05c12.33-6.9,23.29-19.77,19.23-34.3c-1.04-4.03-3.34-8.18-6.02-11.54
		c-2.99-4.02-6.46-7.66-10.26-10.99c-15.01-12.83-34.38-19.73-53.58-23.32c-16.65-2.97-33.76-3.5-50.82-1.57
		c-7.58,0.86-15.12,2.22-22.53,4.14c-3.7,0.95-7.37,2.07-10.98,3.32c-1.85,0.6-3.56,1.43-5.51,1.71c-1.95,0.34-3.99,0.52-6.55-0.11
		C71.05,72.73,70.5,71.7,70.86,70.81L70.86,70.81z"/>
</g>
</svg>
