<?xml version="1.0" encoding="utf-8"?>
<!-- Generator: Adobe Illustrator 28.1.0, SVG Export Plug-In . SVG Version: 6.00 Build 0)  -->
<svg version="1.1" id="Layer_1" xmlns="http://www.w3.org/2000/svg" xmlns:xlink="http://www.w3.org/1999/xlink" x="0px" y="0px"
	 viewBox="0 0 151 29.3" style="enable-background:new 0 0 151 29.3;" xml:space="preserve">
<style type="text/css">
	.st0{fill:#A1A1A1;}
</style>
<g>
	<g>
		<path class="st0" d="M25.3,12.8c-0.7,0-1.2,0.4-1.5,0.9c-0.2-0.5-0.7-0.9-1.4-0.9c-0.6,0-1.1,0.4-1.4,0.9V13h-1.1v5H21v-3
			c0-0.8,0.4-1.2,1-1.2c0.7,0,1,0.5,1,1.1v3h1.1V15c0-0.8,0.4-1.3,1-1.3c0.7,0,0.9,0.5,0.9,1.1v3h1.1v-3.4
			C26.9,13.6,26.4,12.8,25.3,12.8z M32.3,12.8c-0.8,0-1.4,0.3-1.9,0.8l0.6,0.8c0.5-0.4,0.8-0.6,1.4-0.6c0.8,0,1.2,0.4,1.2,1.1h-0.9
			c-2.1,0-2.7,0.7-2.7,1.6c0,1.1,0.9,1.7,2,1.7c0.4,0,1.1-0.1,1.5-0.8V18h1.1v-3.1C34.6,13.4,33.5,12.8,32.3,12.8z M32.2,17.2
			c-0.8,0-1.2-0.3-1.2-0.8c0-0.4,0.3-0.7,1.3-0.7h1.2C33.5,16.5,33,17.2,32.2,17.2z M42.8,10.5h-1.1v3.2c-0.4-0.6-0.9-0.9-1.6-0.9
			c-1.5,0-2.4,1.1-2.4,2.7s0.9,2.7,2.4,2.7c0.7,0,1.2-0.3,1.6-0.8V18h1.1V10.5z M40.3,17.1c-0.9,0-1.5-0.7-1.5-1.6s0.6-1.6,1.5-1.6
			s1.5,0.7,1.5,1.6C41.8,16.4,41.2,17.1,40.3,17.1z M48.8,12.8c-1.6,0-2.7,1.2-2.7,2.7s1.1,2.7,2.8,2.7c0.8,0,1.3-0.2,1.9-0.7
			l-0.5-0.9c-0.5,0.4-0.8,0.5-1.4,0.5c-1.1,0-1.5-0.6-1.6-1.2h4C51.3,13.8,50.2,12.8,48.8,12.8z M48.8,13.8c0.6,0,1.3,0.4,1.4,1.3
			h-3C47.4,14.2,47.9,13.8,48.8,13.8z M64,15.9l-1.5-3l-1.4,2.9L59.9,13h-1.3l2.5,5.1l1.4-2.9L64,18l2.5-5.1h-1.2L64,15.9z
			 M70.2,10.6c-0.4,0-0.8,0.3-0.8,0.8c0,0.4,0.3,0.8,0.8,0.8c0.4,0,0.8-0.3,0.8-0.8C70.9,11,70.6,10.6,70.2,10.6z M70.7,18v-5h-1.1
			v5H70.7z M76,13v-1.1h-1.1V13H74v1h0.9v2.4c0,1.3,1,1.7,2.4,1.7V17c-0.9,0-1.3-0.1-1.3-0.8V14h1v-1H76z M83.3,12.8
			c-0.7,0-1.3,0.4-1.7,0.9v-3.2h-1.1V18h1.1v-3c0-0.8,0.7-1.3,1.3-1.3c0.8,0,1,0.4,1,1.2v3H85v-3.5C85.1,13.5,84.5,12.8,83.3,12.8z
			 M94.2,18v-7.5h-1.1V18H94.2z M100.1,12.8c-1.5,0-2.7,1.2-2.7,2.7s1.2,2.7,2.7,2.7s2.7-1.2,2.7-2.7
			C102.8,14,101.6,12.8,100.1,12.8z M100.1,13.9c1,0,1.5,0.7,1.5,1.6c0,0.9-0.6,1.6-1.5,1.6c-1,0-1.5-0.7-1.5-1.6
			S99.2,13.9,100.1,13.9z M108,18.1l2.7-5.1h-1.2l-1.5,3.2l-1.5-3.2h-1.3L108,18.1z M115.9,12.8c-1.6,0-2.7,1.2-2.7,2.7
			s1.1,2.7,2.8,2.7c0.8,0,1.3-0.2,1.9-0.7l-0.5-0.9c-0.5,0.4-0.8,0.5-1.4,0.5c-1.1,0-1.5-0.6-1.6-1.2h4
			C118.4,13.8,117.3,12.8,115.9,12.8z M115.9,13.8c0.6,0,1.3,0.4,1.4,1.3h-3C114.5,14.2,115,13.8,115.9,13.8z"/>
	</g>
	<path class="st0" d="M131,12.7c-0.1-0.3-0.3-0.6-0.6-0.8c-0.2-0.2-0.5-0.4-0.8-0.5s-0.7-0.2-1-0.2c-0.5,0-1,0.1-1.4,0.4
		c-0.1,0.1-0.2,0.1-0.3,0.2c-0.1-0.1-0.2-0.1-0.3-0.2c-0.4-0.2-0.9-0.4-1.4-0.4c-0.3,0-0.7,0.1-1,0.2c-0.3,0.1-0.6,0.3-0.8,0.5
		c-0.2,0.2-0.4,0.5-0.6,0.8c-0.1,0.3-0.2,0.7-0.2,1s0.1,0.7,0.2,1s0.3,0.6,0.5,0.9c0.3,0.5,0.8,1,1.3,1.5c0.9,0.8,1.8,1.4,1.8,1.4
		l0.2,0.1c0.1,0.1,0.2,0.1,0.3,0l0.2-0.1c0,0,0.9-0.6,1.8-1.4c0.5-0.5,1-1,1.3-1.5c0.2-0.3,0.4-0.6,0.5-0.9c0.1-0.3,0.2-0.7,0.2-1
		C131.2,13.4,131.1,13.1,131,12.7z"/>
</g>
</svg>
