<?xml version="1.0" encoding="utf-8"?>
<!-- Generator: Adobe Illustrator 28.1.0, SVG Export Plug-In . SVG Version: 6.00 Build 0)  -->
<svg version="1.1" id="Layer_1" xmlns="http://www.w3.org/2000/svg" xmlns:xlink="http://www.w3.org/1999/xlink" x="0px" y="0px"
	 viewBox="0 0 616 616" style="enable-background:new 0 0 616 616;" xml:space="preserve">
<style type="text/css">
	.st0{fill:#DCE706;}
</style>
<g>
	<path class="st0" d="M308,50.6c34.8,0,68.5,6.8,100.2,20.2c30.6,13,58.2,31.5,81.8,55.2s42.2,51.2,55.2,81.8
		c13.4,31.7,20.2,65.4,20.2,100.2s-6.8,68.5-20.2,100.2c-13,30.6-31.5,58.2-55.2,81.8s-51.2,42.2-81.8,55.2
		c-31.7,13.4-65.4,20.2-100.2,20.2s-68.5-6.8-100.2-20.2c-30.6-13-58.2-31.5-81.8-55.2s-42.2-51.2-55.2-81.8
		C57.4,376.5,50.6,342.8,50.6,308s6.8-68.5,20.2-100.2c13-30.6,31.5-58.2,55.2-81.8s51.2-42.2,81.8-55.2
		C239.5,57.4,273.2,50.6,308,50.6 M308,0.6C138.2,0.6,0.6,138.2,0.6,308S138.2,615.4,308,615.4S615.4,477.8,615.4,308
		S477.8,0.6,308,0.6L308,0.6z"/>
</g>
</svg>
